<svg width="320" height="320" viewBox="0 0 320 320" fill="none" xmlns="http://www.w3.org/2000/svg">
  <rect width="320" height="320" fill="none"/>

  <g>
    <polygon points="160,36 244,84 160,132 76,84" fill="#FFE07A" stroke="#2A1B1B" stroke-width="8" stroke-linejoin="round"/>
    <polygon points="76,84 160,132 160,236 76,188" fill="#F7C64F" stroke="#2A1B1B" stroke-width="8" stroke-linejoin="round"/>
    <polygon points="244,84 160,132 160,236 244,188" fill="#E3AF37" stroke="#2A1B1B" stroke-width="8" stroke-linejoin="round"/>

    <polygon points="160,56 208,84 160,112 112,84" fill="#FFF2C7" stroke="#2A1B1B" stroke-width="8" stroke-linejoin="round"/>

    <rect x="87" y="110" width="28" height="28" fill="#E7B13A" stroke="#2A1B1B" stroke-width="8" stroke-linejoin="round"/>
    <rect x="205" y="110" width="28" height="28" fill="#D89A2F" stroke="#2A1B1B" stroke-width="8" stroke-linejoin="round"/>
    <rect x="87" y="172" width="28" height="28" fill="#E7B13A" stroke="#2A1B1B" stroke-width="8" stroke-linejoin="round"/>
    <rect x="205" y="172" width="28" height="28" fill="#D89A2F" stroke="#2A1B1B" stroke-width="8" stroke-linejoin="round"/>

    <text x="120" y="177" text-anchor="middle" fill="#FFF8E3" font-size="84" font-weight="900" font-family="'Press Start 2P', monospace" transform="skewY(24)">?</text>
    <text x="201" y="177" text-anchor="middle" fill="#FFF8E3" font-size="84" font-weight="900" font-family="'Press Start 2P', monospace" transform="skewY(-24)">?</text>
    <text x="160" y="102" text-anchor="middle" fill="#FFF8E3" font-size="54" font-weight="900" font-family="'Press Start 2P', monospace">?</text>
  </g>
</svg>
